HIERARCHY
ROOT Hips
{
	OFFSET -3.958830 18.904000 13.208200
	CHANNELS 6 Xposition Yposition Zposition Zrotation Yrotation Xrotation 
	JOINT LHipJoint
	{
		OFFSET 0.000000 0.000000 0.000000
		CHANNELS 3 Zrotation Yrotation Xrotation
		JOINT LeftUpLeg
		{
			OFFSET 1.800000 -1.400000 0.085000
			CHANNELS 3 Zrotation Yrotation Xrotation
			JOINT LeftLeg
			{
				OFFSET 2.215000 -6.000000 0.000000
				CHANNELS 3 Zrotation Yrotation Xrotation
				JOINT LeftFoot
				{
					OFFSET 2.500000 -6.900000 0.000000
					CHANNELS 3 Zrotation Yrotation Xrotation
					JOINT LeftToeBase
					{
						OFFSET 0.200000 -0.500000 1.950000
						CHANNELS 3 Zrotation Yrotation Xrotation
						End Site
						{
							OFFSET 0.000000 0.000000 0.000000
						}
					}
				}
			}
		}
	}
	JOINT RHipJoint
	{
		OFFSET 0.000000 0.000000 0.000000
		CHANNELS 3 Zrotation Yrotation Xrotation
		JOINT RightUpLeg
		{
			OFFSET -1.800000 -1.400000 0.085000
			CHANNELS 3 Zrotation Yrotation Xrotation
			JOINT RightLeg
			{
				OFFSET -2.215000 -6.000000 0.000000
				CHANNELS 3 Zrotation Yrotation Xrotation
				JOINT RightFoot
				{
					OFFSET -2.500000 -6.900000 0.000000
					CHANNELS 3 Zrotation Yrotation Xrotation
					JOINT RightToeBase
					{
						OFFSET -0.200000 -0.500000 1.950000
						CHANNELS 3 Zrotation Yrotation Xrotation
						End Site
						{
							OFFSET 0.000000 0.000000 0.000000
						}
					}
				}
			}
		}
	}
	JOINT LowerBack
	{
		OFFSET 0.000000 0.000000 0.000000
		CHANNELS 3 Zrotation Yrotation Xrotation
		JOINT Spine
		{
			OFFSET -0.087000 1.940000 -0.288900
			CHANNELS 3 Zrotation Yrotation Xrotation
			JOINT Spine1
			{
				OFFSET 0.000000 1.950000 0.060000
				CHANNELS 3 Zrotation Yrotation Xrotation
				JOINT Neck
				{
					OFFSET 0.000000 0.000000 0.000000
					CHANNELS 3 Zrotation Yrotation Xrotation
					JOINT Neck1
					{
						OFFSET 0.000000 1.600000 0.340000
						CHANNELS 3 Zrotation Yrotation Xrotation
						JOINT Head
						{
							OFFSET 0.000000 1.667000 -0.240000
							CHANNELS 3 Zrotation Yrotation Xrotation
							End Site
							{
								OFFSET 0.000000 0.000000 0.000000
							}
						}
					}
				}
				JOINT LeftShoulder
				{
					OFFSET 0.000000 0.000000 0.000000
					CHANNELS 3 Zrotation Yrotation Xrotation
					JOINT LeftArm
					{
						OFFSET 2.700000 1.550000 -0.730000
						CHANNELS 3 Zrotation Yrotation Xrotation
						JOINT LeftForeArm
						{
							OFFSET 5.450000 0.000000 0.000000
							CHANNELS 3 Zrotation Yrotation Xrotation
							JOINT LeftHand
							{
								OFFSET 3.450000 0.000000 0.000000
								CHANNELS 3 Zrotation Yrotation Xrotation
								JOINT LeftHandIndex1
								{
									OFFSET 0.750000 0.000000 0.000000
									CHANNELS 3 Zrotation Yrotation Xrotation
									End Site
									{
										OFFSET 0.000000 0.000000 0.000000
									}
								}
							}
						}
					}
				}
				JOINT RightShoulder
				{
					OFFSET 0.000000 0.000000 0.000000
					CHANNELS 3 Zrotation Yrotation Xrotation
					JOINT RightArm
					{
						OFFSET -2.700000 1.550000 -0.730000
						CHANNELS 3 Zrotation Yrotation Xrotation
						JOINT RightForeArm
						{
							OFFSET -5.450000 0.000000 0.000000
							CHANNELS 3 Zrotation Yrotation Xrotation
							JOINT RightHand
							{
								OFFSET -3.450000 0.000000 0.000000
								CHANNELS 3 Zrotation Yrotation Xrotation
								JOINT RightHandIndex1
								{
									OFFSET -0.750000 0.000000 0.000000
									CHANNELS 3 Zrotation Yrotation Xrotation
									End Site
									{
										OFFSET 0.000000 0.000000 0.000000
									}
								}
							}
						}
					}
				}
			}
		}
	}
}
MOTION
Frames: 7
Frame Time: 0.016667
-2.094150 16.567920 -1.160540 -14.658772 -31.064692 -0.911888 -15.508412 11.821921 3.795422 13.348669 -3.755921 -33.778519 -13.745256 12.104646 31.608228 -0.464957 7.517037 1.972069 0.292750 -0.055770 0.085730 18.294527 -8.274004 4.508130 4.258139 14.546033 -28.750578 20.072737 -26.944823 67.996187 -2.730581 -13.257520 0.569835 0.042580 0.580790 0.061970 -3.383930 -3.211266 -8.899676 1.446620 -1.229373 32.120403 -8.053898 1.770700 9.206407 1.481462 -9.630977 -10.010000 -22.920838 14.749115 34.336693 0.500360 7.772370 -15.364930 -14.847764 5.463848 2.448953 -42.590087 4.970699 -5.555532 164.443939 -44.290752 -166.578326 -3.824560 2.969450 0.876100 0.185400 -0.150750 0.267410 11.439747 1.428547 5.249131 41.882647 -10.501123 -15.456420 103.610346 59.214814 51.953847 1.932584 -1.485818 -0.526460 0.646200 0.181050 -0.263200 
-2.104620 16.482610 -1.178980 -14.948595 -29.641089 -2.200285 -15.538736 11.676216 3.798408 13.409784 -4.356036 -34.068159 -13.446940 12.666359 34.127794 -0.384912 7.940046 1.820415 0.324170 -0.034690 0.094010 18.289560 -7.995030 4.746680 2.480894 15.446875 -32.426712 22.297766 -31.247855 71.917981 -3.102921 -14.569207 0.231317 0.047490 0.576800 0.129180 -3.367817 -3.330577 -9.068279 0.236078 -1.814782 35.636964 -8.350721 0.645933 7.875344 1.745509 -9.267981 -9.488411 -21.467501 14.316518 33.790155 0.250360 7.896510 -15.919550 -15.297578 5.549188 1.782889 -40.949541 4.032444 -5.249535 166.290468 -43.797931 -170.389262 -3.835748 3.046258 0.880090 0.192520 -0.126680 0.282880 11.475712 0.820692 4.985140 39.170078 -10.627942 -14.499595 111.756798 58.418044 59.187330 1.887798 -1.541150 -0.491380 0.599380 0.174300 -0.253240 
-2.132660 16.389570 -1.182650 -15.905197 -29.396558 -5.363748 -15.516207 11.576798 3.707646 14.573141 -4.383242 -32.767800 -12.935804 13.889894 38.371137 -0.128249 8.614291 1.534673 0.442270 0.167660 0.106870 18.313556 -7.851648 4.949161 1.091746 16.255636 -34.230477 23.699186 -36.088920 77.056394 -3.580631 -15.984100 -0.079534 0.092620 0.469810 0.191040 -3.499179 -3.184164 -9.183604 -0.789295 -2.388147 42.195727 -9.133073 -0.535966 5.905326 2.044312 -9.444958 -9.036569 -21.569349 14.972821 33.470411 0.666380 8.098140 -19.386540 -16.298276 5.483530 1.023598 -39.899046 3.294739 -6.443644 168.003225 -45.353972 -175.460259 -3.725848 3.186260 0.855040 0.121660 -0.008090 0.329970 11.950660 0.675699 4.743706 36.139623 -10.833217 -14.078046 121.131752 58.007055 69.027902 1.881713 -1.594167 -0.342130 0.516100 0.091300 -0.184380 
-2.173620 16.276300 -1.154530 -16.858932 -29.922910 -7.268245 -15.470872 11.224303 3.722030 16.151335 -4.339634 -32.733333 -12.632459 15.599276 43.062409 0.078987 9.567950 1.205885 0.526410 0.282050 0.134090 18.389892 -7.732846 5.163194 -0.345436 17.632466 -36.949241 23.480928 -40.442354 83.278805 -3.998655 -17.404132 -0.363589 0.150620 0.443950 0.196080 -3.836726 -2.574778 -9.314722 -0.486522 -3.321996 46.534416 -11.356475 -1.890108 3.600833 2.179571 -9.968561 -8.172615 -22.159673 16.482011 32.510241 1.495860 8.384340 -21.014990 -17.776025 6.041399 0.048937 -37.723157 3.004075 -7.130602 167.005079 -45.609508 -172.996692 -3.679485 3.222993 0.852920 0.089040 0.027020 0.365820 13.148407 -0.226057 4.094283 32.441841 -10.367872 -12.609013 127.492597 57.009001 76.494341 1.833525 -1.668619 -0.305160 0.521760 0.044620 -0.158250 
-2.199720 16.187230 -1.130470 -17.335066 -28.540609 -9.619028 -15.405876 10.989812 3.766723 16.371866 -5.181550 -32.973683 -11.108829 16.505277 48.350589 0.283344 10.353910 0.978532 0.541340 0.315240 0.111940 18.456095 -7.730032 5.264183 -2.251200 17.539687 -39.043068 21.754950 -43.664195 88.931086 -4.288153 -18.500652 -0.538589 0.168980 0.439460 0.144800 -4.086072 -2.094708 -9.398025 -0.664974 -4.837564 50.928498 -13.376075 -4.115361 1.397268 2.767069 -10.288724 -7.920368 -22.868793 18.278565 32.821695 2.223060 8.653510 -20.719560 -20.311580 4.758883 -0.341525 -36.154609 3.421504 -9.313114 162.094929 -48.413680 -163.757855 -3.623594 3.172168 0.854990 0.059830 0.023720 0.401510 14.717703 0.283451 4.299919 29.596081 -10.818961 -12.069490 135.680556 56.775124 87.604888 1.800405 -1.676125 -0.317660 0.550550 0.014090 -0.140490 
-2.214770 16.140940 -1.123580 -17.599516 -27.587429 -12.514621 -15.343054 10.973790 3.659332 16.278064 -5.575271 -31.514799 -9.756932 16.897297 51.758782 0.378735 10.828632 0.816496 0.574880 0.323110 0.137060 18.494163 -7.811332 5.340242 -4.332657 17.261147 -39.598723 20.907292 -45.122825 91.627825 -4.419469 -18.920625 -0.653603 0.176410 0.380130 0.138150 -4.239900 -1.769451 -9.385618 -1.826712 -5.405757 55.427401 -14.163595 -5.593720 0.397230 2.954510 -10.500668 -8.113977 -23.576783 19.900574 33.109282 3.342310 8.310810 -22.933060 -22.024287 2.575084 0.039073 -35.106149 4.526514 -11.675166 157.928862 -53.752303 -159.090502 -3.535828 3.170007 0.924940 -0.019220 0.058110 0.393050 16.244407 2.009902 4.639224 27.855967 -10.766640 -12.649473 144.001956 57.736935 101.157264 1.767986 -1.622644 -0.321330 0.543410 0.011220 -0.155950 
-2.253450 16.084360 -1.111150 -17.897833 -27.516630 -13.609333 -15.365506 10.869933 3.772554 17.902325 -5.658538 -31.315882 -10.932296 18.296970 53.056653 0.478063 11.375691 0.613692 0.566500 0.236660 0.135060 18.498787 -7.689816 5.332886 -5.591193 17.342906 -41.056528 19.453363 -44.285755 92.900786 -4.375130 -18.910727 -0.735133 0.139170 0.341770 0.122300 -4.248764 -1.793069 -9.457501 -3.317394 -5.640710 57.504228 -13.240996 -6.618721 -1.316322 2.736742 -11.414205 -9.185229 -27.350407 22.054886 32.310562 7.517930 5.608820 -23.009540 -21.798729 1.248148 1.104526 -38.939597 5.037902 -12.910044 140.701937 -60.778037 -135.628874 -3.547403 3.015413 0.980490 -0.116720 0.037560 0.347190 16.826957 3.882357 5.138753 25.757251 -10.372553 -12.638610 154.206171 58.023601 118.244293 1.743057 -1.633164 -0.329290 0.516180 0.059240 -0.168500 
